<svg width="188" height="30" viewBox="0 0 188 30" fill="none" xmlns="http://www.w3.org/2000/svg">
<path d="M0 15.0212C0 7.39352 5.64738 1.63612 14.0818 1.63612C22.5162 1.63612 28.1636 7.39352 28.1636 15.0212C28.1636 22.8321 22.5162 28.7362 14.0818 28.7362C5.64738 28.7362 0 22.8321 0 15.0212ZM8.14103 15.0212C8.14103 19.0183 10.6347 21.732 14.0818 21.732C17.5289 21.732 20.0225 19.0183 20.0225 15.0212C20.0225 11.2073 17.5289 8.64034 14.0818 8.64034C10.6347 8.64034 8.14103 11.2073 8.14103 15.0212Z" fill="#FE5B24"/>
<path d="M31.4371 28.2962V2.07618H38.9913L45.4455 12.8209C46.5456 14.6178 47.3157 16.818 47.3157 16.818H47.4624C47.4624 16.818 47.169 14.4711 47.169 12.8209V2.07618H54.8334V28.2962H47.1324L40.6416 17.0381C39.6881 15.4612 38.7713 13.0776 38.7713 13.0776H38.6246C38.6246 13.0776 38.918 15.3879 38.918 17.0381V28.2962H31.4371Z" fill="#FE5B24"/>
<path d="M59.3703 28.2962V2.07618H70.4817C75.689 2.07618 79.3195 4.42314 79.3195 8.93371C79.3195 11.134 78.1827 13.3709 76.0924 14.5078V14.5811C79.1728 15.4979 80.3096 18.1749 80.3096 20.4852C80.3096 26.2059 75.579 28.2962 70.4083 28.2962H59.3703ZM67.1079 12.1608H69.6749C70.9951 12.1608 71.6552 11.1707 71.6552 9.92384C71.6552 8.71368 70.9951 7.87024 69.5649 7.87024H67.1079V12.1608ZM67.1079 22.5021H69.8583C71.5452 22.5021 72.2786 21.3286 72.2786 20.0451C72.2786 18.725 71.5452 17.6248 69.8949 17.6248H67.1079V22.5021Z" fill="#FE5B24"/>
<path d="M110.379 28.2962L119.033 2.07618H127.541L136.195 28.2962H128.531L127.137 23.4556H119.4L118.043 28.2962H110.379ZM121.013 17.6982H125.524L124.314 13.4443C123.874 11.7941 123.36 8.75035 123.36 8.75035H123.214C123.214 8.75035 122.7 11.7941 122.223 13.4443L121.013 17.6982Z" fill="#FE5B24"/>
<path d="M138.191 28.2962V2.07618H149.596C155.353 2.07618 159.277 5.19324 159.277 10.6939C159.277 13.701 157.737 16.5247 155.28 18.0282V18.1015C155.353 18.2482 155.867 18.9083 156.417 19.8984L161.001 28.2962H152.383L148.313 20.0818H146.112V28.2962H138.191ZM146.112 13.9577H148.459C150.219 13.9577 151.246 12.8942 151.246 11.1707C151.246 9.52045 150.549 8.45699 148.166 8.45699H146.112V13.9577Z" fill="#FE5B24"/>
<path d="M163.225 28.2962V2.07618H173.859C181.964 2.07618 187.134 6.88012 187.134 15.1312C187.134 23.3822 181.964 28.2962 173.859 28.2962H163.225ZM171.146 21.842H173.346C176.903 21.842 178.993 19.5684 178.993 15.1312C178.993 10.7306 176.793 8.53033 173.346 8.53033H171.146V21.842Z" fill="#FE5B24"/>
<path d="M88.5879 13.6193L94.3231 15.7819C94.3231 15.7819 93.332 18.1122 90.6536 17.2049C87.6195 16.1771 88.5879 13.6193 88.5879 13.6193Z" fill="currentColor"/>
<path d="M104.73 13.6193L98.9951 15.7819C98.9951 15.7819 99.9862 18.1122 102.665 17.2049C105.699 16.1771 104.73 13.6193 104.73 13.6193Z" fill="currentColor"/>
<path fill-rule="evenodd" clip-rule="evenodd" d="M96.6591 29.8453C104.572 29.8453 110.987 23.4303 110.987 15.517C110.987 12.9446 110.31 10.5306 109.123 8.44375L106.36 10.0639C107.268 11.6753 107.785 13.5357 107.785 15.517C107.785 17.919 107.024 20.1432 105.73 21.9616C103.087 20.6334 99.9816 19.8681 96.6591 19.8681C93.3366 19.8681 90.2311 20.6334 87.5882 21.9616C86.4494 22.5338 84.9117 23.7227 84.9117 23.7227C87.5023 27.4245 91.798 29.8453 96.6591 29.8453Z" fill="currentColor"/>
<path d="M96.6591 1.1887C88.7458 1.1887 82.3308 7.60369 82.3308 15.517C82.3308 18.3616 82.8519 20.4081 84.2814 22.6371L86.9198 20.9234C86.0692 19.3509 85.5328 17.4303 85.5328 15.517C85.5328 13.1192 86.2913 10.8985 87.5814 9.08189L87.5882 9.08633C90.2311 10.4145 93.3366 11.1798 96.6591 11.1798C99.9816 11.1798 103.087 10.4145 105.73 9.08633L105.737 9.08178L108.494 7.43801C108.192 6.99563 107.865 6.57108 107.516 6.16626L107.639 6.0931C108.926 5.42806 110.114 5.74866 110.114 5.74866C110.066 4.50995 110.076 3.80374 109.309 2.79427C107.893 3.1467 107.092 3.56317 106.429 4.18616C106.84 3.19371 108.517 1.85521 108.517 1.85521C107.765 0.837165 107.232 0.428532 105.97 0.154785C104.678 1.32294 104.74 3.29454 104.74 3.29454L104.747 3.68796C104.446 3.48166 104.136 3.28657 103.819 3.10327C101.672 4.43639 98.5844 4.9857 96.6591 5.2121L102.665 2.50418C100.838 1.65981 98.8036 1.1887 96.6591 1.1887Z" fill="currentColor"/>
</svg>
